:SAMPLES-PER-SECOND 30
:FULLY-SPECIFIED
:DEGREES
70
root  -7.25054 39.2006 9.65118 -178.534 26.9477 177.633
RightUpLeg  -14.7498 -2.00554 -12.4616
RightLeg  15.7942 -3.88347 -1.87393
RightFoot  1.02807 -1.5191 14.0186
RightToes  -5.8209e-011 0 -3.6325e-017
Spine  7.92039 -1.31379 -7.67436
Spine1  24.9047 -3.956 4.22424
HEad  -18.2596 23.2422 -12.7864
LeftShoulder1  1.52517 -3.85992 -13.762
LeftArm  6.30845 -2.55695 -56.4702
LeftForeArm  51.9233 -77.9262 -59.6727
LeftHand  -1.00333 -0.267662 20.5566
RightShoulder  0.963705 1.23131 13.4546
RightArm  -6.76936 -19.3811 57.6949
RightForeArm  120.385 74.9114 135.136
RightHand  -1.1766 3.76453 -15.0976
LeftUpLeg  -7.19804 3.61468 1.0235
LeftLeg  20.3184 9.19188 4.07862
LeftFoot  -13.0444 -0.034476 -7.56054
LeftToes  6.82088e-011 -2.45093e-011 5.71991e-013
71
root  -7.34503 39.212 9.64498 -178.746 27.0094 177.331
RightUpLeg  -14.3307 -2.81325 -12.7098
RightLeg  14.9707 -3.188 -1.83049
RightFoot  1.09841 -1.51789 13.9332
RightToes  -5.8209e-011 0 -3.6325e-017
Spine  7.78674 -1.25654 -7.8019
Spine1  24.8632 -3.76969 3.94769
HEad  -18.0051 23.1231 -12.3813
LeftShoulder1  1.48834 -3.74038 -13.5788
LeftArm  5.91119 -2.85635 -56.2313
LeftForeArm  49.02 -77.7898 -59.8729
LeftHand  -1.38342 -0.900243 25.4338
RightShoulder  0.912029 1.01453 13.2739
RightArm  -6.92886 -18.5705 57.6448
RightForeArm  121.234 74.6923 135.981
RightHand  -1.27127 3.98376 -15.9175
LeftUpLeg  -6.96158 3.61679 0.543206
LeftLeg  19.9014 9.38648 4.0706
LeftFoot  -12.9584 -0.0223297 -7.07666
LeftToes  6.82088e-011 -2.45093e-011 5.71991e-013
72
root  -7.41903 39.2049 9.64246 -179.03 27.0573 177.299
RightUpLeg  -13.7119 -3.50218 -12.7417
RightLeg  14.1782 -2.22658 -1.72011
RightFoot  0.971644 -1.50826 13.9807
RightToes  -5.8209e-011 0 -3.6325e-017
Spine  7.94201 -1.20139 -7.31373
Spine1  24.72 -3.36656 3.22079
HEad  -17.7136 22.825 -11.8649
LeftShoulder1  1.49226 -3.77865 -13.5188
LeftArm  5.97894 -2.69142 -56.168
LeftForeArm  44.7067 -77.5135 -59.0918
LeftHand  -1.56786 -0.935341 28.5363
RightShoulder  0.850662 0.722242 13.2169
RightArm  -6.85198 -17.4322 57.2124
RightForeArm  125.332 74.3616 137.724
RightHand  -1.32189 4.26179 -16.077
LeftUpLeg  -6.70129 3.78774 0.411657
LeftLeg  19.9059 9.25649 4.01931
LeftFoot  -13.1405 -0.0289767 -6.84856
LeftToes  6.82088e-011 -2.45093e-011 5.71991e-013
73
root  -7.48943 39.1925 9.64705 -179.21 27.3784 177.311
RightUpLeg  -13.3985 -4.06197 -12.7064
RightLeg  13.6125 -1.47401 -1.65226
RightFoot  1.04168 -1.54208 14.2127
RightToes  -5.8209e-011 0 -3.6325e-017
Spine  7.99777 -1.05103 -6.68657
Spine1  24.7156 -2.79119 2.37601
HEad  -17.7371 22.3865 -11.5017
LeftShoulder1  1.51354 -3.83898 -13.6531
LeftArm  6.58457 -2.16228 -56.2241
LeftForeArm  39.8297 -77.1168 -57.2856
LeftHand  -1.45215 -0.34143 29.0749
RightShoulder  0.792512 0.46605 13.0366
RightArm  -6.50185 -16.057 56.6243
RightForeArm  131.123 73.774 140.356
RightHand  -1.32419 4.52665 -15.6914
LeftUpLeg  -6.58025 4.27096 0.351914
LeftLeg  20.0352 9.10089 3.98581
LeftFoot  -13.3701 -0.0382293 -6.67297
LeftToes  6.82088e-011 -2.45093e-011 5.71991e-013
74
root  -7.54961 39.1876 9.65707 -179.214 27.9533 177.257
RightUpLeg  -13.4404 -4.05959 -12.6535
RightLeg  13.1702 -1.16133 -1.75799
RightFoot  1.242 -1.58935 14.4232
RightToes  -5.8209e-011 0 -3.6325e-017
Spine  7.77718 -0.832955 -6.33347
Spine1  24.9165 -2.20723 1.67097
HEad  -17.9649 22.0544 -11.2283
LeftShoulder1  1.50127 -3.73418 -13.7942
LeftArm  8.08039 -1.39519 -56.7229
LeftForeArm  33.0797 -76.3153 -53.0091
LeftHand  -1.18483 0.516933 27.9442
RightShoulder  0.732415 0.258541 12.4887
RightArm  -6.11887 -14.4483 56.3865
RightForeArm  135.44 73.2494 142.38
RightHand  -1.35448 4.86443 -15.5323
LeftUpLeg  -6.60008 4.79532 0.214904
LeftLeg  20.0321 9.2596 4.04688
LeftFoot  -13.4347 -0.0362363 -6.38291
LeftToes  6.82088e-011 -2.45093e-011 5.71991e-013
75
root  -7.57726 39.1791 9.67383 -179.106 28.6807 177.221
RightUpLeg  -13.7336 -3.06976 -12.6144
RightLeg  12.9703 -1.17744 -1.87727
RightFoot  1.04424 -1.55164 14.2937
RightToes  -5.8209e-011 0 -3.6325e-017
Spine  7.61976 -0.628635 -6.38669
Spine1  24.8478 -1.748 1.11801
HEad  -18.0577 22.0425 -10.8828
LeftShoulder1  1.47999 -3.63206 -13.7918
LeftArm  10.4586 -0.200549 -57.7949
LeftForeArm  23.6965 -74.7757 -46.2809
LeftHand  -0.956408 1.22416 26.4435
RightShoulder  0.674102 0.0861282 11.7258
RightArm  -5.97812 -12.8789 56.6713
RightForeArm  138.2 72.9407 143.537
RightHand  -1.41827 5.21866 -15.7233
LeftUpLeg  -6.64353 5.30162 0.143125
LeftLeg  19.9572 9.50689 4.10957
LeftFoot  -13.6061 -0.0439621 -6.34119
LeftToes  6.82088e-011 -2.45093e-011 5.71991e-013
76
root  -7.56902 39.1243 9.70091 -179.002 29.8058 177.104
RightUpLeg  -14.7518 -1.63761 -12.909
RightLeg  13.9433 -1.45299 -1.50146
RightFoot  0.262706 -1.45988 14.3191
RightToes  -5.8209e-011 0 -3.6325e-017
Spine  7.81393 -0.413462 -6.93387
Spine1  24.122 -1.37259 0.616917
HEad  -18.148 22.4703 -10.6487
LeftShoulder1  1.51265 -3.85336 -13.5968
LeftArm  12.986 1.44926 -59.2673
LeftForeArm  13.9296 -72.4186 -38.8421
LeftHand  -0.762289 1.82787 24.631
RightShoulder  0.630983 -0.0438002 11.1242
RightArm  -5.96402 -11.6493 57.2392
RightForeArm  140.914 72.7276 144.449
RightHand  -1.47772 5.47609 -15.9927
LeftUpLeg  -6.7906 6.42092 0.156143
LeftLeg  20.2316 9.37398 4.05513
LeftFoot  -14.3535 -0.0953244 -6.86641
LeftToes  6.82088e-011 -2.45093e-011 5.71991e-013
77
root  -7.53845 38.974 9.71879 -179.088 31.5519 176.712
RightUpLeg  -16.8931 -1.92197 -13.4405
RightLeg  16.8297 -1.25473 -0.664259
RightFoot  -0.772857 -1.45747 15.626
RightToes  -5.8209e-011 0 -3.6325e-017
Spine  8.17182 -0.169594 -8.01491
Spine1  23.1195 -1.07245 0.214902
HEad  -18.5332 23.5488 -10.8534
LeftShoulder1  1.57455 -4.30853 -13.1515
LeftArm  15.0015 2.72225 -61.2106
LeftForeArm  6.28967 -68.9962 -31.3254
LeftHand  -0.548794 2.53597 22.0854
RightShoulder  0.596992 -0.172492 10.7723
RightArm  -5.57551 -10.6185 57.8903
RightForeArm  143.033 73.0994 144.018
RightHand  -1.61397 5.96151 -16.6967
LeftUpLeg  -7.20467 8.72959 0.0730752
LeftLeg  21.4339 8.6622 3.97558
LeftFoot  -15.7987 -0.20248 -7.6211
LeftToes  6.82088e-011 -2.45093e-011 5.71991e-013
78
root  -7.47891 38.7286 9.68599 -179.639 33.4971 176.258
RightUpLeg  -19.2672 -4.88711 -13.4464
RightLeg  20.7016 -0.281551 -0.326505
RightFoot  -1.84748 -1.5167 17.9805
RightToes  -5.8209e-011 0 -3.6325e-017
Spine  8.5395 -0.0647342 -9.36103
Spine1  22.507 -1.1197 0.20027
HEad  -18.984 25.4692 -11.5217
LeftShoulder1  1.60174 -4.64915 -12.5892
LeftArm  16.5148 2.44397 -63.7819
LeftForeArm  -0.0158148 -63.8263 -24.0423
LeftHand  -0.404974 3.0303 19.7989
RightShoulder  0.562465 -0.327501 10.5394
RightArm  -4.58416 -9.60877 58.6601
RightForeArm  141.921 75.0773 138.868
RightHand  -1.95166 7.16744 -18.2057
LeftUpLeg  -7.55159 11.4144 0.045305
LeftLeg  23.7035 7.7119 4.04658
LeftFoot  -17.6036 -0.345698 -8.23528
LeftToes  6.82088e-011 -2.45093e-011 5.71991e-013
79
root  -7.38243 38.4452 9.57972 179.326 35.0487 176.338
RightUpLeg  -20.6419 -7.06638 -13.2904
RightLeg  23.67 -1.23077 -0.810522
RightFoot  -2.77931 -1.46245 19.0815
RightToes  -5.8209e-011 0 -3.6325e-017
Spine  9.17827 -0.24832 -10.2751
Spine1  22.4266 -1.7201 0.745929
HEad  -19.1442 27.9991 -12.4023
LeftShoulder1  1.62285 -4.88077 -12.2688
LeftArm  17.6833 0.248505 -66.6212
LeftForeArm  -8.54785 -57.0094 -18.3213
LeftHand  -0.446738 2.83915 20.113
RightShoulder  0.550877 -0.392971 10.541
RightArm  -3.54097 -9.23771 59.685
RightForeArm  130.148 78.5653 122.057
RightHand  -2.42408 8.75233 -20.0393
LeftUpLeg  -7.23403 12.7717 0.618365
LeftLeg  26.5623 7.39356 4.36097
LeftFoot  -19.3901 -0.508101 -8.85638
LeftToes  6.82088e-011 -2.45093e-011 5.71991e-013
80
root  -7.23732 38.1681 9.41022 178.147 36.3075 176.946
RightUpLeg  -21.1704 -7.84667 -13.1949
RightLeg  24.6444 -3.6101 -2.01796
RightFoot  -2.62695 -1.35821 17.4976
RightToes  -5.8209e-011 0 -3.6325e-017
Spine  10.0447 -0.631993 -10.5152
Spine1  22.5054 -2.58944 1.47754
HEad  -19.1715 30.5832 -13.2447
LeftShoulder1  1.69028 -5.23837 -12.2476
LeftArm  18.1571 -3.326 -69.1249
LeftForeArm  -19.7398 -50.2283 -14.8266
LeftHand  -0.749867 1.90248 24.4508
RightShoulder  0.581979 -0.292827 11.0027
RightArm  -3.38203 -10.3341 61.1505
RightForeArm  89.1983 80.1348 78.7939
RightHand  -2.80307 9.7258 -21.6257
LeftUpLeg  -6.24711 13.1022 1.68416
LeftLeg  29.3136 7.65764 4.99392
LeftFoot  -21.0929 -0.687475 -9.52457
LeftToes  6.82088e-011 -2.45093e-011 5.71991e-013
81
root  -7.00695 37.8582 9.19324 177.115 37.7483 177.264
RightUpLeg  -22.1276 -7.65608 -13.5947
RightLeg  24.1232 -6.51875 -3.39369
RightFoot  -0.511024 -1.39982 14.6889
RightToes  -5.8209e-011 0 -3.6325e-017
Spine  10.5745 -1.0279 -10.8833
Spine1  22.2725 -3.38638 2.08676
HEad  -19.1673 32.9628 -14.0124
LeftShoulder1  1.7552 -5.58848 -12.2149
LeftArm  17.2961 -7.62607 -70.9313
LeftForeArm  -27.9543 -45.3379 -12.9491
LeftHand  -1.35575 0.496065 31.552
RightShoulder  0.625857 -0.182024 11.8078
RightArm  -4.57596 -12.367 62.9451
RightForeArm  41.3889 72.9351 35.1606
RightHand  -2.96416 9.71558 -22.8326
LeftUpLeg  -5.2697 13.3962 2.51182
LeftLeg  31.8979 8.29127 5.8988
LeftFoot  -22.9408 -0.888192 -10.0797
LeftToes  6.82088e-011 -2.45093e-011 5.71991e-013
82
root  -6.64946 37.459 8.93679 176.2 39.2811 176.807
RightUpLeg  -24.1573 -7.3687 -14.5845
RightLeg  23.2583 -8.87291 -4.36942
RightFoot  3.14474 -1.58674 12.5993
RightToes  -5.8209e-011 0 -3.6325e-017
Spine  10.5922 -1.33076 -12.3149
Spine1  21.4273 -4.29635 3.25569
HEad  -18.6555 35.1779 -14.9756
LeftShoulder1  1.75827 -5.6225 -12.1731
LeftArm  14.8277 -12.3207 -71.627
LeftForeArm  -29.0594 -43.077 -12.0803
LeftHand  -2.03104 -0.725158 37.7003
RightShoulder  0.672892 -0.0777558 12.695
RightArm  -6.75364 -14.0422 63.9698
RightForeArm  13.4006 57.2354 16.5313
RightHand  -2.84572 9.06396 -22.8845
LeftUpLeg  -4.72369 13.8903 2.75049
LeftLeg  34.5919 8.6728 6.75782
LeftFoot  -25.0082 -1.15215 -10.8323
LeftToes  6.82088e-011 -2.45093e-011 5.71991e-013
